# xmcd
#
# Track frame offsets:
#	182
#	14105
#	26427
#	34945
#	45330
#	57700
#	67890
#	79702
#	91257
#	102245
#
# Disc length: 1490
#
# Revision: 2
# Processed by: cddbd v1.5.1PL0 Copyright (c) Steve Scherf et al.
# Submitted via: CDValet v3.31 - Copyright (c) 1997 Greg Leichner
# Normalized: r1:DSETVAR1
#
DISCID=7a05d00a
DTITLE=Various Artist - Doo Wop (Crying In The Chapel)
DYEAR=1900
DGENRE=
TTITLE0=Orioles - Crying In The Chapel
TTITLE1=Elegents - Little Star
TTITLE2=Cleftones - Heart And Soul
TTITLE3=Desires - Let It Please Be You
TTITLE4=Pastels - Been So Long
TTITLE5=Regents - Barbara Ann
TTITLE6=Volumes - I Love You
TTITLE7=Marcels - Heartaches
TTITLE8=Cadillacs - Zoom
TTITLE9=Chips - Rubber Biscuit
EXTD=
EXTT0=
EXTT1=
EXTT2=
EXTT3=
EXTT4=
EXTT5=
EXTT6=
EXTT7=
EXTT8=
EXTT9=
PLAYORDER=
